<?xml version="1.0" standalone="no"?>
<!DOCTYPE svg PUBLIC "-//W3C//DTD SVG 20010904//EN"
 "http://www.w3.org/TR/2001/REC-SVG-20010904/DTD/svg10.dtd">
<svg version="1.0" xmlns="http://www.w3.org/2000/svg"
 width="512.000000pt" height="512.000000pt" viewBox="0 0 512.000000 512.000000"
 preserveAspectRatio="xMidYMid meet">

<g transform="translate(0.000000,512.000000) scale(0.100000,-0.100000)"
fill="#000000" stroke="none">
<path d="M0 2560 l0 -2560 2560 0 2560 0 0 2560 0 2560 -2560 0 -2560 0 0
-2560z m2710 1811 c47 -6 103 -15 125 -21 22 -6 56 -13 75 -16 19 -3 39 -10
44 -15 6 -5 18 -9 27 -9 20 0 80 -30 91 -45 4 -5 8 -6 8 -1 0 5 7 3 15 -4 8
-7 15 -9 15 -4 0 5 4 4 8 -1 8 -12 64 -39 75 -37 4 1 10 -5 13 -13 4 -8 12
-15 18 -15 7 0 23 -11 36 -25 12 -13 26 -23 30 -20 3 2 13 -5 20 -16 8 -10 19
-19 25 -19 6 0 25 -17 41 -37 16 -20 35 -42 42 -50 7 -7 10 -13 6 -13 -4 0 7
-16 26 -35 19 -19 30 -35 24 -35 -5 0 -2 -5 6 -10 8 -5 15 -13 15 -17 0 -4 10
-22 23 -40 12 -17 22 -36 22 -42 0 -6 5 -11 11 -11 5 0 8 -4 5 -9 -3 -5 1 -14
9 -21 8 -7 15 -20 15 -29 0 -9 6 -25 14 -36 7 -11 17 -36 22 -55 4 -19 9 -38
10 -42 1 -5 2 -17 3 -29 0 -11 5 -18 9 -15 13 8 17 -50 17 -259 0 -163 -4
-210 -18 -255 -21 -65 -18 -55 -24 -79 -3 -11 -4 -23 -3 -27 1 -4 -4 -10 -12
-15 -7 -5 -13 -12 -14 -16 -1 -15 -29 -68 -39 -75 -5 -4 -7 -8 -2 -8 10 0 -22
-50 -47 -73 -10 -9 -16 -17 -13 -17 8 0 -29 -44 -94 -111 -31 -32 -59 -65 -62
-74 -4 -8 -10 -14 -15 -13 -12 4 -73 -68 -64 -76 4 -4 2 -6 -4 -4 -7 1 -13 -1
-15 -7 -4 -14 -52 -63 -60 -61 -11 2 -69 -53 -69 -66 0 -6 -2 -9 -5 -6 -8 7
-203 -185 -198 -194 2 -5 -1 -8 -7 -8 -13 0 -80 -68 -80 -81 0 -5 -6 -8 -12
-7 -7 2 -12 -3 -10 -9 1 -7 -2 -13 -7 -13 -13 0 -81 -70 -81 -83 0 -6 -2 -8
-5 -5 -9 9 -95 -78 -95 -95 0 -16 44 -17 530 -17 l530 0 0 -345 0 -345 -1090
0 -1090 0 0 184 c0 113 4 187 10 191 5 3 10 24 10 45 0 45 26 151 39 159 9 6
25 67 19 77 -2 3 5 10 15 15 9 6 17 15 17 21 0 5 11 24 25 40 14 16 22 35 19
40 -4 7 -2 8 4 4 7 -4 12 -1 12 8 0 9 5 16 10 16 6 0 9 4 8 9 -2 5 18 32 45
60 26 28 46 52 45 54 -2 1 16 21 40 43 23 23 42 46 42 51 0 9 50 57 60 58 3 0
4 2 3 5 -2 6 88 96 102 101 6 2 9 7 8 11 -2 4 6 9 16 13 10 3 21 15 24 26 3
11 9 18 14 17 4 -2 10 2 12 7 7 14 25 33 31 32 3 -1 5 1 5 4 0 12 27 39 35 34
4 -3 10 4 13 15 3 11 9 19 14 18 4 -2 9 0 10 5 5 15 28 35 36 30 4 -2 7 1 7 8
0 18 51 69 67 69 8 0 12 3 9 8 -4 7 93 109 100 105 2 -2 4 -1 4 2 -1 9 95 103
99 99 2 -2 11 5 18 16 8 11 19 18 24 15 5 -4 9 1 9 9 0 8 9 17 19 21 11 3 26
20 34 38 16 33 68 89 84 89 4 0 7 3 6 8 -1 4 20 29 47 54 28 26 50 44 50 39 0
-8 19 21 42 67 7 14 15 27 18 30 3 3 5 10 6 15 0 6 7 29 14 52 9 30 10 46 3
55 -6 7 -13 29 -16 48 -8 52 -18 80 -28 80 -5 0 -9 5 -9 12 0 16 -81 98 -97
98 -7 0 -13 5 -13 12 0 6 -3 8 -7 5 -3 -4 -12 -2 -20 4 -7 6 -13 9 -13 6 0 -3
-16 1 -35 9 -45 18 -126 18 -151 -1 -10 -8 -25 -15 -33 -15 -7 0 -28 -13 -46
-29 -18 -16 -37 -30 -42 -32 -16 -8 -70 -85 -82 -119 -7 -19 -15 -51 -17 -70
-3 -19 -9 -48 -15 -64 -5 -16 -9 -76 -9 -132 l0 -104 -376 0 -376 0 5 238 c4
236 11 308 28 326 5 6 9 19 9 31 0 12 4 25 10 31 5 5 11 22 12 37 1 14 8 29
15 31 7 3 13 12 13 21 0 18 20 56 35 67 6 4 6 8 2 8 -5 0 5 18 22 39 17 21 31
44 31 50 0 6 5 11 10 11 6 0 10 6 10 13 0 7 47 59 105 117 58 58 105 101 105
96 0 -5 8 1 19 12 10 12 20 20 22 17 3 -2 18 7 33 20 16 14 33 22 37 19 5 -3
9 -2 9 3 0 4 15 14 33 21 17 7 41 18 52 24 63 36 115 57 145 61 14 1 30 5 35
9 16 10 125 28 169 28 23 0 47 4 55 9 16 10 62 8 191 -8z"/>
</g>
</svg>
